# xmcd
#
# Track frame offsets: 
#        150
#        10461
#        27778
#        75856
#        123047
#        142877
#        168115
#        183241
#        222222
#
# Disc length: 3121 seconds
#
# Revision: 0
# Processed by: cddbd v1.5.1PL0 Copyright (c) Steve Scherf et al.
# Submitted via: ExactAudioCopy v0.90b4
#
DISCID=5f0c2f09
DTITLE=Duo Domizana - Dubrovnik - Najljepse Dalmatinske Pjesme
DYEAR=2000
DGENRE=Country
TTITLE0=U dardinu
TTITLE1=Sinoc kad sklopih oci
TTITLE2=Pjesme sa Straduna
TTITLE3=Dalmacija mix
TTITLE4=Konobo moja
TTITLE5=Ribarske Pjesme
TTITLE6=Nikoleta
TTITLE7=Dubrovnik Mix
TTITLE8=Lula starog kapetana
EXTD=
EXTT0=
EXTT1=
EXTT2=
EXTT3=
EXTT4=
EXTT5=
EXTT6=
EXTT7=
EXTT8=
PLAYORDER=
